<svg width="24" height="24" viewBox="0 0 24 24" fill="none" xmlns="http://www.w3.org/2000/svg">
<path d="M10.0596 0C15.6152 0.000151432 20.1191 4.50391 20.1191 10.0596C20.1191 12.4974 19.2503 14.7316 17.8076 16.4727C17.9059 16.5201 17.9986 16.5845 18.0801 16.666L23.71 22.2959C24.1001 22.6865 24.1004 23.3196 23.71 23.71C23.3196 24.1004 22.6865 24.1001 22.2959 23.71L16.666 18.0801C16.5845 17.9986 16.5201 17.9059 16.4727 17.8076C14.7316 19.2503 12.4974 20.1191 10.0596 20.1191C4.50391 20.1191 0.000151372 15.6152 0 10.0596C5.20568e-05 4.50385 4.50385 5.15398e-05 10.0596 0ZM10.0596 2C5.60842 2.00005 2.00005 5.60842 2 10.0596C2.00015 14.5106 5.60848 18.1191 10.0596 18.1191C14.5106 18.119 18.119 14.5106 18.1191 10.0596C18.1191 5.60848 14.5106 2.00015 10.0596 2Z" fill="#333333"/>
</svg>
