<svg width="21" height="21" viewBox="0 0 21 21" fill="none" xmlns="http://www.w3.org/2000/svg">
<path d="M16.5 0C16.7761 0 17 0.223858 17 0.5V7H18.5C19.163 7 19.7987 7.26358 20.2676 7.73242C20.7364 8.20126 21 8.83696 21 9.5V14.5C21 15.163 20.7364 15.7987 20.2676 16.2676C19.7987 16.7364 19.163 17 18.5 17H17V20.5C17 20.7761 16.7761 21 16.5 21H4.5C4.22386 21 4 20.7761 4 20.5V17H2.5C1.83696 17 1.20126 16.7364 0.732422 16.2676C0.263581 15.7987 0 15.163 0 14.5V9.5C0 8.83696 0.263581 8.20126 0.732422 7.73242C1.20126 7.26358 1.83696 7 2.5 7H4V0.5C4 0.223858 4.22386 0 4.5 0H16.5ZM5 20H16V13H5V20ZM13.5 17H7.5V16H13.5V17ZM2.5 8C2.10218 8 1.72076 8.15815 1.43945 8.43945C1.15815 8.72076 1 9.10218 1 9.5V14.5C1 14.8978 1.15815 15.2792 1.43945 15.5605C1.72076 15.8419 2.10218 16 2.5 16H4V12.5C4 12.2239 4.22386 12 4.5 12H16.5C16.7761 12 17 12.2239 17 12.5V16H18.5C18.8978 16 19.2792 15.8419 19.5605 15.5605C19.8419 15.2792 20 14.8978 20 14.5V9.5C20 9.10218 19.8419 8.72076 19.5605 8.43945C19.2792 8.15815 18.8978 8 18.5 8H2.5ZM5 7H16V1H5V7Z" fill="#333333"/>
</svg>
