<svg width="40" height="40" viewBox="0 0 40 40" fill="none" xmlns="http://www.w3.org/2000/svg">
<path d="M19 11C23.4183 11 27 14.5817 27 19C27 20.8494 26.3701 22.5504 25.3164 23.9053C25.3302 23.9176 25.3442 23.9301 25.3574 23.9434L29.707 28.293C30.0974 28.6835 30.0975 29.3166 29.707 29.707C29.3166 30.0973 28.6834 30.0973 28.293 29.707L23.9434 25.3574C23.9301 25.3442 23.9186 25.3292 23.9062 25.3154C22.5512 26.3697 20.8499 27 19 27C14.5817 27 11 23.4183 11 19C11 14.5817 14.5817 11 19 11ZM19 13C15.6863 13 13 15.6863 13 19C13 22.3137 15.6863 25 19 25C22.3137 25 25 22.3137 25 19C25 15.6863 22.3137 13 19 13Z" fill="white"/>
</svg>
