<svg width="21" height="24" viewBox="0 0 21 24" fill="none" xmlns="http://www.w3.org/2000/svg">
<path fill-rule="evenodd" clip-rule="evenodd" d="M10.5 4.75341C5.66751 4.75341 1.75 8.67023 1.75 13.5019C1.75 18.3335 5.66751 22.2503 10.5 22.2503C15.3325 22.2503 19.25 18.3335 19.25 13.5019C19.25 12.1976 18.9651 10.9622 18.455 9.8526C18.2531 9.41359 18.4455 8.89412 18.8846 8.69233C19.3236 8.49054 19.8432 8.68284 20.045 9.12185C20.6584 10.4561 21 11.9403 21 13.5019C21 19.2998 16.299 24 10.5 24C4.70101 24 0 19.2998 0 13.5019C0 7.7039 4.70101 3.00372 10.5 3.00372V4.75341Z" fill="white"/>
<path d="M10.5 7.31888V0.438259C10.5 0.0673956 10.9326 -0.1352 11.2176 0.102221L15.3467 3.54253C15.5566 3.71741 15.5566 4.03973 15.3467 4.21461L11.2176 7.65491C10.9326 7.89234 10.5 7.68974 10.5 7.31888Z" fill="white"/>
</svg>
