<svg width="19" height="19" viewBox="0 0 19 19" fill="none" xmlns="http://www.w3.org/2000/svg">
<path d="M8 0C12.4183 0 16 3.58172 16 8C16 9.84937 15.3701 11.5504 14.3164 12.9053C14.3302 12.9176 14.3442 12.9301 14.3574 12.9434L18.707 17.293C19.0974 17.6835 19.0975 18.3166 18.707 18.707C18.3166 19.0973 17.6834 19.0973 17.293 18.707L12.9434 14.3574C12.9301 14.3442 12.9186 14.3292 12.9062 14.3154C11.5512 15.3697 9.84986 16 8 16C3.58172 16 0 12.4183 0 8C0 3.58172 3.58172 0 8 0ZM8 2C4.68629 2 2 4.68629 2 8C2 11.3137 4.68629 14 8 14C11.3137 14 14 11.3137 14 8C14 4.68629 11.3137 2 8 2Z" fill="#212121"/>
</svg>
