<svg width="15" height="15" viewBox="0 0 15 15" fill="none" xmlns="http://www.w3.org/2000/svg">
<path d="M7.16699 0C11.1249 0.000176137 14.333 3.20906 14.333 7.16699C14.3328 11.1248 11.1248 14.3328 7.16699 14.333C3.20906 14.333 0.000176134 11.1249 0 7.16699C0 3.20895 3.20895 0 7.16699 0ZM1.02246 7.66699C1.24673 10.4587 3.32853 12.7235 6.03223 13.2266C4.85671 11.6024 4.15671 9.67693 4.02246 7.66699H1.02246ZM10.3105 7.66699C10.1764 9.67711 9.47628 11.6023 8.30078 13.2266C11.0047 12.7238 13.0863 10.4589 13.3105 7.66699H10.3105ZM5.02539 7.66699C5.17112 9.64295 5.91822 11.5264 7.16602 13.0645C8.41411 11.5263 9.16095 9.64312 9.30664 7.66699H5.02539ZM8.2998 1.10547C9.47617 2.73012 10.1775 4.656 10.3115 6.66699H13.3105C13.0864 3.87448 11.0043 1.60798 8.2998 1.10547ZM7.16602 1.26855C5.91799 2.80677 5.171 4.6907 5.02539 6.66699H9.30664C9.16108 4.69052 8.41435 2.80688 7.16602 1.26855ZM6.0332 1.10547C3.32885 1.6082 1.24662 3.87469 1.02246 6.66699H4.02148C4.15561 4.65607 4.85675 2.73003 6.0332 1.10547Z" fill="#333333"/>
</svg>
