<svg width="12" height="12" viewBox="0 0 12 12" fill="none" xmlns="http://www.w3.org/2000/svg">
<path d="M4.90039 0.000976562C5.17653 0.000976562 5.40039 0.224834 5.40039 0.500977C5.40013 0.776894 5.17637 1.00098 4.90039 1.00098H1.9668C1.71056 1.00109 1.46444 1.1029 1.2832 1.28418C1.10222 1.46542 1.00012 1.71156 1 1.96777V10.0381C1.00013 10.2944 1.10212 10.5404 1.2832 10.7217C1.46443 10.9029 1.71059 11.0048 1.9668 11.0049H10.0352C10.2912 11.0048 10.5375 10.9027 10.7188 10.7217C10.8998 10.5404 11.0018 10.2943 11.002 10.0381V7.10352C11.002 6.82752 11.226 6.60369 11.502 6.60352C11.7779 6.60365 12.0019 6.8275 12.002 7.10352V10.0381C12.0018 10.5595 11.7943 11.0599 11.4258 11.4287C11.057 11.7973 10.5565 12.0048 10.0352 12.0049H1.9668C1.4453 12.0048 0.944919 11.7975 0.576172 11.4287C0.207526 11.0599 0.000129367 10.5596 0 10.0381V1.96777C0.000120203 1.44642 0.207683 0.945943 0.576172 0.577148C0.944918 0.208363 1.4453 0.00108819 1.9668 0.000976562H4.90039ZM11.6006 0.00976562C11.6125 0.0122091 11.6241 0.017287 11.6357 0.0205078C11.655 0.0258356 11.6747 0.0313621 11.6934 0.0390625C11.7067 0.04465 11.7196 0.0519246 11.7324 0.0585938C11.7765 0.0815411 11.8194 0.109511 11.8564 0.146484C11.9022 0.192347 11.9386 0.247839 11.9639 0.308594C11.9703 0.324058 11.9737 0.340537 11.9785 0.356445C11.9831 0.371628 11.9891 0.386586 11.9922 0.402344C11.9986 0.434579 12.0029 0.467253 12.0029 0.5L12.002 5.08496C12.002 5.36094 11.7779 5.5847 11.502 5.58496C11.226 5.58476 11.002 5.36098 11.002 5.08496V1.70801L6.35547 6.35547C6.16031 6.55068 5.84374 6.55047 5.64844 6.35547C5.45338 6.16021 5.45327 5.84365 5.64844 5.64844L10.2959 1H6.91797C6.64198 0.999824 6.41797 0.776034 6.41797 0.5C6.41813 0.2241 6.64207 0.000175573 6.91797 0H11.5029C11.5355 4.23159e-05 11.5685 0.0034087 11.6006 0.00976562Z" fill="#333333"/>
</svg>
