<svg width="10" height="14" viewBox="0 0 10 14" fill="none" xmlns="http://www.w3.org/2000/svg">
<path d="M8.83398 12.6875C9.11013 12.6875 9.33398 12.9114 9.33398 13.1875C9.33398 13.4636 9.11013 13.6875 8.83398 13.6875H0.5C0.223858 13.6875 0 13.4636 0 13.1875C0 12.9114 0.223858 12.6875 0.5 12.6875H8.83398ZM4.5 0C4.77601 0.000158162 5 0.223955 5 0.5V8.23047L8.02148 5.20898C8.21675 5.01382 8.53328 5.01375 8.72852 5.20898C8.92365 5.40422 8.92365 5.72078 8.72852 5.91602L4.85352 9.79102C4.82979 9.81476 4.80348 9.83588 4.77539 9.85449C4.77115 9.8573 4.76603 9.85866 4.76172 9.86133C4.71188 9.8922 4.65712 9.91592 4.59766 9.92773C4.5329 9.9406 4.46611 9.94068 4.40137 9.92773C4.30282 9.90808 4.21488 9.85936 4.14648 9.79102L0.271484 5.91602C0.0762222 5.72075 0.0762222 5.40425 0.271484 5.20898C0.466754 5.01382 0.783284 5.01375 0.978516 5.20898L4 8.23047V0.5C4 0.223858 4.22386 0 4.5 0Z" fill="black"/>
</svg>
