<svg width="28" height="28" viewBox="0 0 28 28" fill="none" xmlns="http://www.w3.org/2000/svg">
<path d="M8.6155 23C8.15517 23 7.77083 22.8458 7.4625 22.5375C7.15417 22.2292 7 21.8448 7 21.3845V6.6155C7 6.15517 7.15417 5.77083 7.4625 5.4625C7.77083 5.15417 8.15517 5 8.6155 5H16.7307L21 9.26925V21.3845C21 21.8448 20.8458 22.2292 20.5375 22.5375C20.2292 22.8458 19.8448 23 19.3845 23H8.6155ZM8.6155 22H19.3845C19.5385 22 19.6796 21.9359 19.8078 21.8078C19.9359 21.6796 20 21.5385 20 21.3845V9.76925H16.2307V6H8.6155C8.4615 6 8.32042 6.06408 8.19225 6.19225C8.06408 6.32042 8 6.4615 8 6.6155V21.3845C8 21.5385 8.06408 21.6796 8.19225 21.8078C8.32042 21.9359 8.4615 22 8.6155 22ZM14 20.2115C14.9115 20.2115 15.6778 19.8775 16.299 19.2095C16.9202 18.5417 17.2307 17.7411 17.2307 16.8078V12.2307H16.2307V16.8078C16.2307 17.4603 16.0167 18.024 15.5885 18.499C15.1603 18.974 14.6308 19.2115 14 19.2115C13.373 19.2115 12.8445 18.974 12.4145 18.499C11.9843 18.024 11.7692 17.4603 11.7692 16.8078V11.3462C11.7692 11.0807 11.8513 10.8509 12.0155 10.6568C12.1795 10.4626 12.3858 10.3655 12.6345 10.3655C12.8872 10.3655 13.0946 10.4626 13.2567 10.6568C13.4189 10.8509 13.5 11.0807 13.5 11.3462V16.8078H14.5V11.3462C14.5 10.8129 14.3224 10.3494 13.9673 9.95575C13.6121 9.56225 13.1678 9.3655 12.6345 9.3655C12.1012 9.3655 11.657 9.56225 11.302 9.95575C10.9468 10.3494 10.7692 10.8129 10.7692 11.3462V16.8078C10.7692 17.7411 11.0807 18.5417 11.7037 19.2095C12.3269 19.8775 13.0923 20.2115 14 20.2115Z" fill="#333333"/>
</svg>
