<svg width="28" height="28" viewBox="0 0 28 28" fill="none" xmlns="http://www.w3.org/2000/svg">
<path d="M14.001 5C15.1309 5.00011 16.2071 5.48332 16.9941 6.33008C17.78 7.17564 18.2157 8.31593 18.2158 9.49707V12.6943C18.2158 12.6991 18.214 12.7042 18.2139 12.709H19.0566C20.2425 12.7091 21.0019 13.8974 21.002 15.0781V20.6182C21.0019 21.7989 20.2425 22.9862 19.0566 22.9863H8.94434C7.75851 22.9861 7.00008 21.7989 7 20.6182V15.0781C7.00002 13.8974 7.75847 12.7092 8.94434 12.709H9.78711C9.78698 12.7042 9.78613 12.6991 9.78613 12.6943V9.49707C9.78622 8.31589 10.2219 7.17565 11.0078 6.33008C11.7949 5.48342 12.871 5 14.001 5ZM8.94434 13.709C8.53475 13.7092 8.00002 14.1951 8 15.0781V20.6182C8.00007 21.5011 8.53477 21.9861 8.94434 21.9863H19.0566C19.4662 21.9861 20.0019 21.5011 20.002 20.6182V15.0781C20.0019 14.1951 19.4662 13.7092 19.0566 13.709H8.94434ZM14 16C14.5523 16 15 16.4477 15 17V19C15 19.5523 14.5523 20 14 20C13.4477 20 13 19.5523 13 19V17C13 16.4477 13.4477 16 14 16ZM14.001 6C13.1609 6 12.3464 6.35878 11.7402 7.01074C11.133 7.66411 10.7862 8.55845 10.7861 9.49707V12.6943C10.7861 12.6991 10.7843 12.7042 10.7842 12.709H17.2168C17.2167 12.7042 17.2158 12.6991 17.2158 12.6943V9.49707C17.2157 8.55847 16.8689 7.66411 16.2617 7.01074C15.6556 6.35867 14.8411 6.00011 14.001 6Z" fill="#333333"/>
</svg>
