<svg width="14" height="14" viewBox="0 0 14 14" fill="none" xmlns="http://www.w3.org/2000/svg">
<path d="M13.501 8.66699C13.777 8.66708 14.001 8.8909 14.001 9.16699V12.0557C14.0009 12.5711 13.796 13.0661 13.4316 13.4307C13.0671 13.7952 12.5722 14.0009 12.0566 14.001H1.94434C1.42874 14.0009 0.933949 13.7952 0.569336 13.4307C0.204906 13.0661 6.16268e-05 12.5712 0 12.0557V9.16699C0 8.89085 0.223858 8.66699 0.5 8.66699C0.776142 8.66699 1 8.89085 1 9.16699V12.0557C1.00006 12.3059 1.09947 12.5466 1.27637 12.7236C1.45344 12.9006 1.69396 13.0009 1.94434 13.001H12.0566C12.307 13.0009 12.5476 12.9006 12.7246 12.7236C12.9015 12.5466 13.0009 12.3059 13.001 12.0557V9.16699C13.001 8.89085 13.2248 8.66699 13.501 8.66699ZM6.99805 0C7.27419 0 7.49805 0.223858 7.49805 0.5V7.96387L10.2578 5.2041C10.4531 5.00884 10.7696 5.00885 10.9648 5.2041C11.16 5.39937 11.1601 5.7159 10.9648 5.91113L7.35352 9.52246C7.15828 9.71761 6.84172 9.71761 6.64648 9.52246L3.03516 5.91113C2.83992 5.7159 2.83998 5.39937 3.03516 5.2041C3.23042 5.00884 3.54693 5.00884 3.74219 5.2041L6.49805 7.95996V0.5C6.49805 0.223858 6.7219 0 6.99805 0Z" fill="white"/>
</svg>
