<svg width="15" height="15" viewBox="0 0 15 15" fill="none" xmlns="http://www.w3.org/2000/svg">
<path d="M7.16699 0L7.53613 0.00976562C11.3225 0.202065 14.333 3.33384 14.333 7.16797C14.3326 11.1255 11.1246 14.3338 7.16699 14.334C3.20922 14.334 0.000440149 11.1256 0 7.16797C0 3.20993 3.20895 0 7.16699 0ZM1.02246 7.66699C1.24653 10.459 3.32833 12.7245 6.03223 13.2275C4.85647 11.6032 4.15565 9.67726 4.02148 7.66699H1.02246ZM10.3115 7.66699C10.1774 9.67744 9.47653 11.6031 8.30078 13.2275C11.0049 12.7247 13.0865 10.4592 13.3105 7.66699H10.3115ZM5.02539 7.66699C5.17104 9.64312 5.91812 11.5273 7.16602 13.0654C8.41422 11.5272 9.16104 9.6433 9.30664 7.66699H5.02539ZM8.2998 1.10547C9.47622 2.73006 10.1774 4.65604 10.3115 6.66699H13.3105C13.0862 3.87467 11.0042 1.60792 8.2998 1.10547ZM7.16602 1.26953C5.91823 2.80757 5.17107 4.691 5.02539 6.66699H9.30664C9.161 4.69083 8.4141 2.80768 7.16602 1.26953ZM6.0332 1.10547C3.32896 1.60814 1.24683 3.87488 1.02246 6.66699H4.02148C4.1557 4.65612 4.8567 2.72997 6.0332 1.10547Z" fill="#212121"/>
</svg>
