<svg width="22" height="22" viewBox="0 0 22 22" fill="none" xmlns="http://www.w3.org/2000/svg">
<path d="M21.6045 0.00976562C21.6664 0.0223594 21.7242 0.0469038 21.7754 0.0800781C21.7806 0.0834568 21.7849 0.0882036 21.79 0.0917969C21.8097 0.105577 21.8283 0.120324 21.8457 0.136719C21.8494 0.140184 21.8538 0.142886 21.8574 0.146484C21.8614 0.150494 21.8643 0.156046 21.8682 0.160156C21.8829 0.175939 21.8966 0.19237 21.9092 0.209961C21.9155 0.218755 21.9221 0.227232 21.9277 0.236328C21.9378 0.252527 21.9459 0.269742 21.9541 0.287109C21.9594 0.298233 21.9653 0.308905 21.9697 0.320312C21.9756 0.335476 21.979 0.351353 21.9834 0.367188C21.9874 0.38157 21.9924 0.395534 21.9951 0.410156C22.0004 0.439359 22.0039 0.469272 22.0039 0.5V21.5039C22.0039 21.78 21.78 22.0039 21.5039 22.0039C21.228 22.0036 21.0039 21.7799 21.0039 21.5039V1.70703L0.853516 21.8574C0.658253 22.0527 0.341747 22.0527 0.146484 21.8574C-0.0483815 21.6621 -0.0486456 21.3455 0.146484 21.1504L20.2969 1H0.5C0.223981 0.999855 0 0.776053 0 0.5C0.000144361 0.22407 0.22407 0.000144361 0.5 0H21.5039L21.6045 0.00976562Z" fill="#333333"/>
</svg>
