<svg width="48" height="48" viewBox="0 0 48 48" fill="none" xmlns="http://www.w3.org/2000/svg">
<path d="M31.5 16C31.5327 16 31.5655 16.0024 31.5977 16.0088C31.6488 16.0189 31.696 16.0391 31.7402 16.0635C31.7806 16.0857 31.8193 16.1123 31.8535 16.1465C31.8874 16.1803 31.9134 16.2189 31.9355 16.2588C31.9601 16.303 31.98 16.3502 31.9902 16.4014C31.9967 16.4339 32 16.467 32 16.5V31.5C32 31.7761 31.7761 32 31.5 32C31.2239 32 31 31.7761 31 31.5V17.707L16.8535 31.8535C16.6583 32.0488 16.3417 32.0488 16.1465 31.8535C15.9512 31.6583 15.9512 31.3417 16.1465 31.1465L30.293 17H16.5C16.2239 17 16 16.7761 16 16.5C16 16.2239 16.2239 16 16.5 16H31.5Z" fill="white"/>
</svg>
