<svg width="40" height="40" viewBox="0 0 40 40" fill="none" xmlns="http://www.w3.org/2000/svg">
<path d="M27.2939 11.2922C27.6845 10.9018 28.3175 10.9018 28.708 11.2922C29.0985 11.6827 29.0984 12.3158 28.708 12.7063L21.4141 20.0002L28.708 27.2942C29.0984 27.6847 29.0984 28.3177 28.708 28.7083C28.3175 29.0988 27.6845 29.0987 27.2939 28.7083L20 21.4143L12.7061 28.7083C12.3155 29.0988 11.6825 29.0987 11.292 28.7083C10.9015 28.3177 10.9015 27.6847 11.292 27.2942L18.5859 20.0002L11.292 12.7063C10.9015 12.3158 10.9015 11.6828 11.292 11.2922C11.6825 10.9018 12.3156 10.9017 12.7061 11.2922L20 18.5862L27.2939 11.2922Z" fill="black"/>
</svg>
