<svg width="48" height="48" viewBox="0 0 48 48" fill="none" xmlns="http://www.w3.org/2000/svg">
<path d="M4.73145 41.1543V6.1543H23.7309V14.1543H43.2694V30.4618H40.2699V17.1543H23.7309V22.1543H28.1159V25.1543H23.7309V30.1543H28.1159V33.1543H23.7309V38.1543H32.5004V41.1543H4.73145ZM7.73095 38.1543H12.7314V33.1543H7.73095V38.1543ZM7.73095 30.1543H12.7314V25.1543H7.73095V30.1543ZM7.73095 22.1543H12.7314V17.1543H7.73095V22.1543ZM7.73095 14.1543H12.7314V9.1543H7.73095V14.1543ZM15.7309 38.1543H20.7314V33.1543H15.7309V38.1543ZM15.7309 30.1543H20.7314V25.1543H15.7309V30.1543ZM15.7309 22.1543H20.7314V17.1543H15.7309V22.1543ZM15.7309 14.1543H20.7314V9.1543H15.7309V14.1543ZM40.2699 45.1543V41.1543H36.2699V38.1543H40.2699V34.1543H43.2694V38.1543H47.2694V41.1543H43.2694V45.1543H40.2699ZM32.5004 25.1543V22.1543H35.5004V25.1543H32.5004ZM32.5004 33.1543V30.1543H35.5004V33.1543H32.5004Z" fill="#E3E3E3"/>
</svg>
