<svg width="48" height="48" viewBox="0 0 48 48" fill="none" xmlns="http://www.w3.org/2000/svg">
<path d="M10 38V10V18.6615V17.6155V38ZM14.5 25.5H25.05C25.104 24.959 25.2227 24.4385 25.406 23.9385C25.589 23.4385 25.8165 22.959 26.0885 22.5H14.5V25.5ZM14.5 33.5H21.9075C22.3588 32.987 22.8615 32.5543 23.4155 32.202C23.9692 31.8493 24.5498 31.559 25.1575 31.331C25.0755 31.2077 25.0037 31.0743 24.942 30.931C24.8807 30.7873 24.8295 30.6437 24.7885 30.5H14.5V33.5ZM14.5 17.5H33.5V14.5H14.5V17.5ZM10.6155 41C9.60517 41 8.75 40.65 8.05 39.95C7.35 39.25 7 38.3948 7 37.3845V10.6155C7 9.60517 7.35 8.75 8.05 8.05C8.75 7.35 9.60517 7 10.6155 7H37.3845C38.3948 7 39.25 7.35 39.95 8.05C40.65 8.75 41 9.60517 41 10.6155V21.477C40.623 20.8667 40.1877 20.3275 39.694 19.8595C39.2007 19.3915 38.636 18.9922 38 18.6615V10.6155C38 10.4615 37.9358 10.3205 37.8075 10.1925C37.6795 10.0642 37.5385 10 37.3845 10H10.6155C10.4615 10 10.3205 10.0642 10.1925 10.1925C10.0642 10.3205 10 10.4615 10 10.6155V37.3845C10 37.5385 10.0642 37.6795 10.1925 37.8075C10.3205 37.9358 10.4615 38 10.6155 38H20.0615C20.0412 38.123 20.0258 38.246 20.0155 38.369C20.0052 38.4923 20 38.6155 20 38.7385V41H10.6155ZM33.8845 31C32.6385 31 31.577 30.5615 30.7 29.6845C29.823 28.8075 29.3845 27.746 29.3845 26.5C29.3845 25.2537 29.823 24.1922 30.7 23.3155C31.577 22.4385 32.6385 22 33.8845 22C35.1308 22 36.1923 22.4385 37.069 23.3155C37.946 24.1922 38.3845 25.2537 38.3845 26.5C38.3845 27.746 37.946 28.8075 37.069 29.6845C36.1923 30.5615 35.1308 31 33.8845 31ZM24.3845 41V38.7C24.3845 37.9897 24.5672 37.3377 24.9325 36.744C25.2982 36.1507 25.813 35.7232 26.477 35.4615C27.6383 34.9745 28.8415 34.6092 30.0865 34.3655C31.3315 34.1218 32.5975 34 33.8845 34C35.1462 34 36.3993 34.1218 37.644 34.3655C38.889 34.6092 40.1052 34.9745 41.2925 35.4615C41.9565 35.7232 42.4712 36.1507 42.8365 36.744C43.2018 37.3377 43.3845 37.9897 43.3845 38.7V41H24.3845Z" fill="#E3E3E3"/>
</svg>
