<svg width="48" height="48" viewBox="0 0 48 48" fill="none" xmlns="http://www.w3.org/2000/svg">
<path d="M14 41.5C11.3743 41.5 9.13467 40.573 7.281 38.719C5.427 36.8653 4.5 34.6257 4.5 32C4.5 29.7973 5.159 27.8582 6.477 26.1825C7.795 24.5072 9.46933 23.404 11.5 22.873V26.023C10.3333 26.5 9.375 27.2808 8.625 28.3655C7.875 29.4502 7.5 30.6617 7.5 32C7.5 33.795 8.13467 35.327 9.404 36.596C10.673 37.8653 12.205 38.5 14 38.5C15.795 38.5 17.327 37.8653 18.596 36.596C19.8653 35.327 20.5 33.795 20.5 32V30.5H31.769C31.9973 30.136 32.3063 29.8398 32.696 29.6115C33.086 29.3835 33.5207 29.2695 34 29.2695C34.7563 29.2695 35.4005 29.5355 35.9325 30.0675C36.4645 30.5995 36.7305 31.2437 36.7305 32C36.7305 32.7563 36.4645 33.4005 35.9325 33.9325C35.4005 34.4645 34.7563 34.7305 34 34.7305C33.5077 34.7305 33.0698 34.6197 32.6865 34.398C32.3032 34.1763 31.9973 33.877 31.769 33.5H23.377C22.9873 35.877 21.9033 37.8045 20.125 39.2825C18.3467 40.7608 16.305 41.5 14 41.5ZM34 41.5C32.364 41.5 30.8647 41.1185 29.502 40.3555C28.1393 39.5928 27.0182 38.5642 26.1385 37.2695H30.219C30.7243 37.6538 31.3052 37.955 31.9615 38.173C32.6178 38.391 33.2973 38.5 34 38.5C35.795 38.5 37.327 37.8653 38.596 36.596C39.8653 35.327 40.5 33.795 40.5 32C40.5 30.205 39.8653 28.673 38.596 27.404C37.327 26.1347 35.795 25.5 34 25.5C33.3717 25.5 32.7903 25.5788 32.256 25.7365C31.7213 25.8942 31.2103 26.1243 30.723 26.427L24.873 16.6805C24.173 16.6628 23.564 16.4033 23.046 15.902C22.5283 15.4007 22.2695 14.7667 22.2695 14C22.2695 13.2437 22.5355 12.5995 23.0675 12.0675C23.5995 11.5355 24.2437 11.2695 25 11.2695C25.7563 11.2695 26.4005 11.5355 26.9325 12.0675C27.4645 12.5995 27.7305 13.2437 27.7305 14C27.7305 14.205 27.7113 14.3947 27.673 14.569C27.6347 14.7437 27.5628 14.9143 27.4575 15.081L32 22.7075C32.305 22.6408 32.6237 22.5897 32.956 22.554C33.288 22.518 33.636 22.5 34 22.5C36.6257 22.5 38.8653 23.427 40.719 25.281C42.573 27.1347 43.5 29.3743 43.5 32C43.5 34.6257 42.573 36.8653 40.719 38.719C38.8653 40.573 36.6257 41.5 34 41.5ZM14 34.7305C13.2437 34.7305 12.5995 34.4645 12.0675 33.9325C11.5355 33.4005 11.2695 32.7563 11.2695 32C11.2695 31.2923 11.5123 30.6782 11.998 30.1575C12.484 29.6372 13.0988 29.3578 13.8425 29.3195L18.754 21.154C17.7103 20.2667 16.9072 19.2045 16.3445 17.9675C15.7815 16.7302 15.5 15.4077 15.5 14C15.5 11.3743 16.427 9.13467 18.281 7.281C20.1347 5.427 22.3743 4.5 25 4.5C27.6257 4.5 29.8653 5.427 31.719 7.281C33.573 9.13467 34.5 11.3743 34.5 14H31.5C31.5 12.205 30.8653 10.673 29.596 9.404C28.327 8.13467 26.795 7.5 25 7.5C23.205 7.5 21.673 8.13467 20.404 9.404C19.1347 10.673 18.5 12.205 18.5 14C18.5 15.4207 18.9013 16.679 19.704 17.775C20.5063 18.871 21.5613 19.6525 22.869 20.1195L16.427 30.869C16.532 31.0487 16.6088 31.2308 16.6575 31.4155C16.7062 31.6002 16.7305 31.795 16.7305 32C16.7305 32.7563 16.4645 33.4005 15.9325 33.9325C15.4005 34.4645 14.7563 34.7305 14 34.7305Z" fill="#E3E3E3"/>
</svg>
