<svg width="48" height="48" viewBox="0 0 48 48" fill="none" xmlns="http://www.w3.org/2000/svg">
<path d="M18.6155 37.5008V34.5008H41V37.5008H18.6155ZM18.6155 25.5008V22.5008H41V25.5008H18.6155ZM18.6155 13.5008V10.5008H41V13.5008H18.6155ZM10.327 39.3278C9.412 39.3278 8.62883 39.002 7.9775 38.3503C7.32583 37.699 7 36.9158 7 36.0008C7 35.0858 7.32583 34.3027 7.9775 33.6513C8.62883 32.9997 9.412 32.6738 10.327 32.6738C11.242 32.6738 12.0252 32.9997 12.6765 33.6513C13.3282 34.3027 13.654 35.0858 13.654 36.0008C13.654 36.9158 13.3282 37.699 12.6765 38.3503C12.0252 39.002 11.242 39.3278 10.327 39.3278ZM10.327 27.3278C9.412 27.3278 8.62883 27.002 7.9775 26.3503C7.32583 25.699 7 24.9158 7 24.0008C7 23.0858 7.32583 22.3027 7.9775 21.6513C8.62883 20.9997 9.412 20.6738 10.327 20.6738C11.242 20.6738 12.0252 20.9997 12.6765 21.6513C13.3282 22.3027 13.654 23.0858 13.654 24.0008C13.654 24.9158 13.3282 25.699 12.6765 26.3503C12.0252 27.002 11.242 27.3278 10.327 27.3278ZM10.327 15.3278C9.412 15.3278 8.62883 15.002 7.9775 14.3503C7.32583 13.699 7 12.9158 7 12.0008C7 11.0858 7.32583 10.3027 7.9775 9.65133C8.62883 8.99966 9.412 8.67383 10.327 8.67383C11.242 8.67383 12.0252 8.99966 12.6765 9.65133C13.3282 10.3027 13.654 11.0858 13.654 12.0008C13.654 12.9158 13.3282 13.699 12.6765 14.3503C12.0252 15.002 11.242 15.3278 10.327 15.3278Z" fill="#E3E3E3"/>
</svg>
